<svg id="brightness_4_black_24dp_1_" data-name="brightness_4_black_24dp (1)" xmlns="http://www.w3.org/2000/svg" width="30" height="30" viewBox="0 0 30 30">
  <path id="Path_5817" data-name="Path 5817" d="M0,0H30V30H0Z" fill="none"/>
  <path id="Path_5818" data-name="Path 5818" d="M24.827,10.69V4.827H18.965L14.828.69,10.69,4.827H4.827V10.69L.69,14.828l4.137,4.137v5.862H10.69l4.137,4.137,4.137-4.137h5.862V18.965l4.137-4.137Zm-2.5,7.237v4.4h-4.4l-3.1,3.1-3.1-3.1h-4.4v-4.4l-3.1-3.1,3.1-3.1v-4.4h4.4l3.1-3.1,3.1,3.1h4.4v4.4l3.1,3.1ZM15.19,8.578a6.231,6.231,0,0,0-2.6.575,6.237,6.237,0,0,1,0,11.35,6.247,6.247,0,1,0,2.6-11.925Z" transform="translate(0.172 0.172)" fill="#495c6f"/>
</svg>
