<svg id="translate_black_24dp" xmlns="http://www.w3.org/2000/svg" width="30" height="30" viewBox="0 0 30 30">
  <path id="Path_6638" data-name="Path 6638" d="M0,0H30V30H0Z" fill="none"/>
  <path id="Path_6639" data-name="Path 6639" d="M15.837,18.337,12.663,15.2l.037-.037A21.9,21.9,0,0,0,17.337,7H21V4.5H12.25V2H9.75V4.5H1V6.987H14.962A19.641,19.641,0,0,1,11,13.688,19.556,19.556,0,0,1,8.113,9.5h-2.5a21.952,21.952,0,0,0,3.725,5.7L2.975,21.475,4.75,23.25,11,17l3.887,3.888.95-2.55ZM22.875,12h-2.5L14.75,27h2.5l1.4-3.75h5.937L26,27h2.5ZM19.6,20.75l2.025-5.413L23.65,20.75H19.6Z" transform="translate(0.25 -1.5)" fill="#495c6f"/>
</svg>
