<svg id="notifications_black_24dp_1_" data-name="notifications_black_24dp (1)" xmlns="http://www.w3.org/2000/svg" width="30" height="30" viewBox="0 0 30 30">
  <path id="Path_517" data-name="Path 517" d="M0,0H30V30H0Z" fill="none"/>
  <path id="Path_519" data-name="Path 519" d="M14,26.875a2.507,2.507,0,0,0,2.5-2.5h-5A2.507,2.507,0,0,0,14,26.875Zm7.5-7.5v-6.25c0-3.837-2.038-7.05-5.625-7.9v-.85a1.875,1.875,0,0,0-3.75,0v.85c-3.575.85-5.625,4.05-5.625,7.9v6.25L4,21.875v1.25H24v-1.25ZM19,20.625H9v-7.5c0-3.1,1.887-5.625,5-5.625s5,2.525,5,5.625Z" transform="translate(1 0.625)" fill="#495c6f"/>
</svg>
