<svg id="switch_access_shortcut_black_24dp" xmlns="http://www.w3.org/2000/svg" xmlns:xlink="http://www.w3.org/1999/xlink" width="24" height="24" viewBox="0 0 24 24">
  <defs>
    <linearGradient id="linear-gradient" x1="1" y1="1" x2="0.417" y2="0.207" gradientUnits="objectBoundingBox">
      <stop offset="0" stop-color="#4b2ab5"/>
      <stop offset="0.207" stop-color="#7b55f7"/>
      <stop offset="0.674" stop-color="#2173f2"/>
      <stop offset="1" stop-color="#6fa8ff"/>
    </linearGradient>
  </defs>
  <rect id="Rectangle_9697" data-name="Rectangle 9697" width="24" height="24" rx="12" fill="none"/>
  <path id="Path_16477" data-name="Path 16477" d="M7.06,8.94,5,8l2.06-.94L8,5l.94,2.06L11,8l-2.06.94L8,11,7.06,8.94ZM8,21l.94-2.06L11,18l-2.06-.94L8,15l-.94,2.06L5,18l2.06.94ZM4.37,12.37,3,13l1.37.63L5,15l.63-1.37L7,13l-1.37-.63L5,11ZM12,12a11.423,11.423,0,0,1,3.44-8H12V2h7V9H17V5.28A9.571,9.571,0,0,0,14,12a8.981,8.981,0,0,0,5,7.82V22A10.992,10.992,0,0,1,12,12Z" fill="url(#linear-gradient)"/>
</svg>
