<svg id="calendar_month_black_24dp_1_" data-name="calendar_month_black_24dp (1)" xmlns="http://www.w3.org/2000/svg" width="24" height="24" viewBox="0 0 24 24">
  <g id="Group_2589" data-name="Group 2589">
    <rect id="Rectangle_6175" data-name="Rectangle 6175" width="24" height="24" fill="none"/>
  </g>
  <g id="Group_2590" data-name="Group 2590" transform="translate(3 2)">
    <rect id="Rectangle_6176" data-name="Rectangle 6176" width="14" height="2" transform="translate(2 4)" fill="#2173f2" opacity="0"/>
    <path id="Path_527" data-name="Path 527" d="M19,4H18V2H16V4H8V2H6V4H5A1.991,1.991,0,0,0,3.01,6L3,20a2,2,0,0,0,2,2H19a2.006,2.006,0,0,0,2-2V6A2.006,2.006,0,0,0,19,4Zm0,16H5V10H19ZM19,8H5V6H19ZM9,14H7V12H9Zm4,0H11V12h2Zm4,0H15V12h2ZM9,18H7V16H9Zm4,0H11V16h2Zm4,0H15V16h2Z" transform="translate(-3 -2)" fill="#2173f2"/>
  </g>
</svg>
