<svg id="event_black_24dp" xmlns="http://www.w3.org/2000/svg" xmlns:xlink="http://www.w3.org/1999/xlink" width="24" height="24" viewBox="0 0 24 24">
  <defs>
    <linearGradient id="linear-gradient" x1="-0.301" x2="0.5" y2="1" gradientUnits="objectBoundingBox">
      <stop offset="0" stop-color="#2173f2"/>
      <stop offset="1" stop-color="#2173f2"/>
    </linearGradient>
  </defs>
  <path id="Path_364" data-name="Path 364" d="M0,0H24V24H0Z" fill="none"/>
  <path id="Path_365" data-name="Path 365" d="M19,4H18V2H16V4H8V2H6V4H5A1.991,1.991,0,0,0,3.01,6L3,20a2,2,0,0,0,2,2H19a2.006,2.006,0,0,0,2-2V6A2.006,2.006,0,0,0,19,4Zm0,16H5V10H19ZM19,8H5V6H19Zm-7,5h5v5H12Z" fill="url(#linear-gradient)"/>
</svg>
