<svg xmlns="http://www.w3.org/2000/svg" width="52" height="52" viewBox="0 0 52 52">
  <path id="Path_5629" data-name="Path 5629" d="M52,26c0,2.217-2.725,4.046-3.272,6.091-.566,2.116.864,5.06-.208,6.912-1.087,1.878-4.362,2.106-5.886,3.63S40.882,47.433,39,48.52c-1.852,1.072-4.8-.358-6.911.208C30.046,49.275,28.217,52,26,52s-4.046-2.725-6.091-3.272c-2.116-.566-5.06.864-6.912-.208-1.878-1.087-2.106-4.362-3.63-5.886S4.567,40.882,3.48,39c-1.072-1.852.358-4.8-.208-6.911C2.725,30.046,0,28.217,0,26s2.725-4.046,3.272-6.091c.566-2.116-.864-5.06.208-6.912,1.087-1.878,4.362-2.106,5.886-3.63S11.118,4.567,13,3.48c1.852-1.072,4.8.358,6.911-.208C21.954,2.725,23.783,0,26,0s4.046,2.725,6.091,3.272c2.116.566,5.06-.864,6.912.208,1.878,1.087,2.106,4.362,3.63,5.886s4.8,1.752,5.886,3.631c1.072,1.852-.358,4.8.208,6.911C49.275,21.954,52,23.783,52,26" fill="#08131f"/>
</svg>
