<svg xmlns="http://www.w3.org/2000/svg" xmlns:xlink="http://www.w3.org/1999/xlink" width="24" height="24" viewBox="0 0 24 24">
  <defs>
    <clipPath id="clip-path">
      <rect width="24" height="24" fill="none"/>
    </clipPath>
  </defs>
  <g id="settings_accessibility_black_24dp" clip-path="url(#clip-path)">
    <g id="settings_accessibility_black_24dp-2" data-name="settings_accessibility_black_24dp">
      <g id="Group_2720" data-name="Group 2720">
        <rect id="Rectangle_6199" data-name="Rectangle 6199" width="24" height="24" fill="none"/>
      </g>
      <g id="Group_2721" data-name="Group 2721" transform="translate(0 3)">
        <path id="Path_581" data-name="Path 581" d="M20.5,4A34,34,0,0,1,12,5,34,34,0,0,1,3.5,4L3,6A35.449,35.449,0,0,0,9,7V19h2V13h2v6h2V7a35.449,35.449,0,0,0,6-1ZM12,4a2,2,0,1,0-2-2A2.006,2.006,0,0,0,12,4Z" fill="#fff"/>
      </g>
    </g>
  </g>
</svg>
