<svg id="auto_fix_normal_black_24dp_2_" data-name="auto_fix_normal_black_24dp (2)" xmlns="http://www.w3.org/2000/svg" width="24" height="24" viewBox="0 0 24 24">
  <path id="Path_597" data-name="Path 597" d="M0,0H24V24H0Z" fill="none"/>
  <path id="Path_598" data-name="Path 598" d="M22,2,19.5,3.4,17,2l1.4,2.5L17,7l2.5-1.4L22,7,20.6,4.5ZM14.37,7.29a1,1,0,0,0-1.41,0L1.29,18.96a1,1,0,0,0,0,1.41l2.34,2.34a1,1,0,0,0,1.41,0L16.7,11.05a1,1,0,0,0,0-1.41L14.37,7.29Zm-1.03,5.49-2.12-2.12,2.44-2.44,2.12,2.12-2.44,2.44Z" fill="#fff"/>
</svg>
