<svg id="payments_black_24dp" xmlns="http://www.w3.org/2000/svg" width="24" height="24" viewBox="0 0 24 24">
  <rect id="Rectangle_6200" data-name="Rectangle 6200" width="24" height="24" fill="none"/>
  <path id="Path_582" data-name="Path 582" d="M17,6H3v8H17Zm-7,7a3,3,0,1,1,3-3A3,3,0,0,1,10,13Z" fill="#fff" opacity="0.3"/>
  <g id="Group_2722" data-name="Group 2722">
    <path id="Path_583" data-name="Path 583" d="M17,4H3A2.006,2.006,0,0,0,1,6v8a2.006,2.006,0,0,0,2,2H17a2.006,2.006,0,0,0,2-2V6a2.006,2.006,0,0,0-2-2ZM3,14V6H17v8Z" fill="#fff"/>
    <path id="Path_584" data-name="Path 584" d="M10,7a3,3,0,1,0,3,3,3,3,0,0,0-3-3Z" fill="#fff"/>
  </g>
  <path id="Path_585" data-name="Path 585" d="M23,7V18a2.006,2.006,0,0,1-2,2H4V18H21V7Z" fill="#fff"/>
</svg>
